# xmcd
# 
# Track frame offsets:
#   150
#   17689
#   34918
#   50638
#   68803
#   88199
#   102376
#   118149
#   136448
#   150280
#   169399
#   184092
#   205555
#   219820
# 
# Disc length: 3155 seconds
# 
# Revision: 2
# Processed by: cddbd v1.5.1PL2 Copyright (c) Steve Scherf et al.
# Submitted via: Synapstar 1.0 
# 
DISCID=c00c510e
DTITLE=Various Artist - SD104
DYEAR=1900
DGENRE=Country
TTITLE0=Kenny Chesney - Big Star
TTITLE1=Jo Dee Messina - Was That My Life
TTITLE2=Alan Jackson - That'd Be Alright
TTITLE3=Toby Keith - Rock You Baby
TTITLE4=Tim McGraw - She's My Kind Of Rain
TTITLE5=Rascal Flatts - Love You Out Loud
TTITLE6=Phil Vassar - This Is God
TTITLE7=Jeff Bates - Love Song, The
TTITLE8=John Michael Montgomery - Country Thang
TTITLE9=Travis Tritt - Country Ain't Country
TTITLE10=Sammy Kershaw - I Want My Money
TTITLE11=Steve Wariner - Snow Fall On The Sand
TTITLE12=Jenai - Cool Me Down
TTITLE13=Aaron Tippin - Love Like There's No Tomorrow
EXTD=MediaType: Karaoke CD+G Producer: StarDisc
EXTT0=
EXTT1=
EXTT2=
EXTT3=
EXTT4=
EXTT5=
EXTT6=
EXTT7=
EXTT8=
EXTT9=
EXTT10=
EXTT11=
EXTT12=
EXTT13=
PLAYORDER=
